<svg width="900" height="220" viewBox="0 0 900 220" fill="none" xmlns="http://www.w3.org/2000/svg">

  <g transform="translate(10,10) scale(0.35)">
    <path d="M256 36L406 92V230C406 342 338 424 256 472C174 424 106 342 106 230V92L256 36Z" fill="#1E3A8A"/>
    <polygon points="256,120 350,165 256,210 162,165" fill="white"/>
    <rect x="216" y="175" width="80" height="24" rx="6" fill="white"/>

    <circle cx="190" cy="275" r="12" fill="#0EA5E9"/>
    <circle cx="256" cy="235" r="12" fill="#0EA5E9"/>
    <circle cx="322" cy="275" r="12" fill="#0EA5E9"/>

    <line x1="190" y1="275" x2="256" y2="235" stroke="white" stroke-width="6"/>
    <line x1="256" y1="235" x2="322" y2="275" stroke="white" stroke-width="6"/>

    <polyline points="170,340 220,310 270,325 340,250" fill="none" stroke="#38BDF8" stroke-width="12"/>
  </g>

  <text
        x="220"
        y="95"
        font-size="58"
        font-weight="700"
        fill="#FFFFFF"
        font-family="Segoe UI, Arial, sans-serif">
    SIADE
  </text>

  <text
        x="220"
        y="135"
        font-size="24"
        fill="#CBD5E1"
        font-family="Segoe UI, Arial, sans-serif">
    Sistema Inteligente de Alertas para la Deserción Escolar
  </text>

  <text
        x="220"
        y="175"
        font-size="20"
        fill="#94A3B8"
        font-family="Segoe UI, Arial, sans-serif">
    Unidad Educativa Fiscal Atanasio Viteri • AMIE 17H00127
  </text>

</svg>